/* XPM */
static char * simsu_xpm[] = {
"32 32 184 2",
"  	c None",
". 	c #CDCDCD",
"+ 	c #C0C0C0",
"@ 	c #BFBFBF",
"# 	c #BEBEBE",
"$ 	c #BDBDBD",
"% 	c #BCBCBC",
"& 	c #BBBBBB",
"* 	c #BABABA",
"= 	c #B9B9B9",
"- 	c #B8B8B8",
"; 	c #B7B7B7",
"> 	c #B6B6B6",
", 	c #B5B5B5",
"' 	c #B4B4B4",
") 	c #B3B3B3",
"! 	c #B2B2B2",
"~ 	c #B1B1B1",
"{ 	c #B0B0B0",
"] 	c #AFAFAF",
"^ 	c #AEAEAE",
"/ 	c #ADADAD",
"( 	c #ACACAC",
"_ 	c #ABABAB",
": 	c #A9A9A9",
"< 	c #A2A2A2",
"[ 	c #A7A7A7",
"} 	c #A4A4A4",
"| 	c #A5A5A5",
"1 	c #AAAAAA",
"2 	c #A3A3A3",
"3 	c #A6A6A6",
"4 	c #A8A8A8",
"5 	c #9C9C9C",
"6 	c #9D9D9D",
"7 	c #9E9E9E",
"8 	c #A0A0A0",
"9 	c #989898",
"0 	c #999999",
"a 	c #898989",
"b 	c #979797",
"c 	c #F3F3F3",
"d 	c #F2F2F2",
"e 	c #F1F1F1",
"f 	c #F0F0F0",
"g 	c #EFEFEF",
"h 	c #DCDCDC",
"i 	c #8F8F8F",
"j 	c #EBEBEB",
"k 	c #EAEAEA",
"l 	c #E9E9E9",
"m 	c #E8E8E8",
"n 	c #E6E6E6",
"o 	c #747474",
"p 	c #6C6C6C",
"q 	c #383838",
"r 	c #434343",
"s 	c #5F5F5F",
"t 	c #DBDBDB",
"u 	c #EEEEEE",
"v 	c #EDEDED",
"w 	c #9A9A9A",
"x 	c #E7E7E7",
"y 	c #6A6A6A",
"z 	c #2F2F2F",
"A 	c #717171",
"B 	c #DADADA",
"C 	c #ECECEC",
"D 	c #9B9B9B",
"E 	c #E5E5E5",
"F 	c #7F7F7F",
"G 	c #282828",
"H 	c #3E3E3E",
"I 	c #313131",
"J 	c #5D5D5D",
"K 	c #969696",
"L 	c #D9D9D9",
"M 	c #E4E4E4",
"N 	c #686868",
"O 	c #909090",
"P 	c #808080",
"Q 	c #606060",
"R 	c #373737",
"S 	c #D8D8D8",
"T 	c #666666",
"U 	c #4A4A4A",
"V 	c #454545",
"W 	c #343434",
"X 	c #959595",
"Y 	c #9F9F9F",
"Z 	c #D7D7D7",
"` 	c #E3E3E3",
" .	c #656565",
"..	c #818181",
"+.	c #878787",
"@.	c #949494",
"#.	c #A1A1A1",
"$.	c #D3D3D3",
"%.	c #E2E2E2",
"&.	c #C8C8C8",
"*.	c #C9C9C9",
"=.	c #CBCBCB",
"-.	c #CCCCCC",
";.	c #C1C1C1",
">.	c #C2C2C2",
",.	c #C4C4C4",
"'.	c #C3C3C3",
").	c #636363",
"!.	c #616161",
"~.	c #8C8C8C",
"{.	c #8B8B8B",
"].	c #8A8A8A",
"^.	c #888888",
"/.	c #767676",
"(.	c #848484",
"_.	c #858585",
":.	c #838383",
"<.	c #828282",
"[.	c #7C7C7C",
"}.	c #8D8D8D",
"|.	c #CACACA",
"1.	c #505050",
"2.	c #4F4F4F",
"3.	c #4E4E4E",
"4.	c #626262",
"5.	c #919191",
"6.	c #8E8E8E",
"7.	c #414141",
"8.	c #E1E1E1",
"9.	c #E0E0E0",
"0.	c #DFDFDF",
"a.	c #646464",
"b.	c #272727",
"c.	c #515151",
"d.	c #363636",
"e.	c #939393",
"f.	c #DEDEDE",
"g.	c #929292",
"h.	c #212121",
"i.	c #565656",
"j.	c #2A2A2A",
"k.	c #555555",
"l.	c #DDDDDD",
"m.	c #5B5B5B",
"n.	c #404040",
"o.	c #464646",
"p.	c #2B2B2B",
"q.	c #7D7D7D",
"r.	c #1F1F1F",
"s.	c #7A7A7A",
"t.	c #696969",
"u.	c #797979",
"v.	c #424242",
"w.	c #242424",
"x.	c #868686",
"y.	c #5A5A5A",
"z.	c #4C4C4C",
"A.	c #393939",
"B.	c #3D3D3D",
"C.	c #595959",
"D.	c #D5D5D5",
"E.	c #585858",
"F.	c #6D6D6D",
"G.	c #6E6E6E",
"H.	c #707070",
"I.	c #787878",
"J.	c #6F6F6F",
"K.	c #525252",
"L.	c #7B7B7B",
"M.	c #545454",
"N.	c #3C3C3C",
"O.	c #232323",
"P.	c #171717",
"Q.	c #535353",
"R.	c #7E7E7E",
"S.	c #090909",
"T.	c #181818",
"U.	c #141414",
"V.	c #494949",
"W.	c #303030",
"X.	c #080808",
"Y.	c #070707",
"Z.	c #5E5E5E",
"`.	c #777777",
"                                                                ",
"  . + @ # $ $ % & * * = - ; > > , ' ) ! ! ~ { ] ] ^ / ( _ : <   ",
"  + & [ < } | | [ _ ' - 1 2 } | 3 [ 4 / ~ : 5 5 6 7 7 8 } 4 3   ",
"  @ [ 9 6 5 0 a b 0 6 ! ; c d e f g g h ( i j j k l m m n | 4 o ",
"  # < 6 5 p q r s 9 5 ~ t d e f g g u v _ w j k l m m x n [ [ y ",
"  $ | 5 9 z A a 9 b 6 ) B e f g g u v C ( D k l m m x n E 4 [ y ",
"  $ | D F G H I J K 7 ) L f g g u v C C ( w l m m x n E M 1 3 N ",
"  % 3 w O G P Q R K 7 ! S g g u v C C j _ D m m x n E M M : | T ",
"  & [ w 0 U V W s X Y ) Z g u v C C j k ( 5 m x n E M M ` _ }  .",
"  * _ 0 9 b ..+.X @.#.! $.u v C C j k x ( 7 x n E M M ` %.( }  .",
"  * ' 6 5 6 7 7 Y #.; ! : &.*.=.=.=.-.- _ | = ;.>.,.'.,.= [ 2 ).",
"  = - ~ { { ~ ~ ~ { ~ ~ ( [ 4 [ [ 3 | 4 1 4 2 2 } } } } } 2 < !.",
"  - 3 ..~.{.].a ^.a 7 / /.(._.(.:.<.<.[.} }.@ -.=.|.*.*.= Y #.Q ",
"  ; D K F 1.2.3.4.5.@.: (.6.J 7.3./.].a 7 5.M ` %.8.8.9.0.8 8 s ",
"  > 5 X _.a.).b.c.O X _ (.}.N y d.I a ^.7 e.` %.8.8.9.0.f.#.8 J ",
"  > 7 @.e.g.o h.<.i K ( :.~.+.i.j.k.^.+.8 e.%.8.8.9.0.f.l.2 Y m.",
"  , 7 e.g.g.n.o.i i b ( <.{.+.k.p.d.+.+.8 @.8.8.9.0.f.l.l.2 7 m.",
"  ' Y g.g.q.r.s.i 6.b / ..{.t.u.v.w.x.x.#.@.8.9.0.f.l.l.h } 6 y.",
"  ) 8 g.5.Q z.i 6.}.9 ^ ..].A.p.B.y x._.< K 9.0.f.l.l.h t | 6 C.",
"  ! : i O i i 6.}.}.: _ 6.a ^.+.+.x._.e.2 9 h f.l.l.h t D.} 5 E.",
"  ! ~ ( _ ( ( ( ( ( _ 1 : 1 : 1 : 4 [ } 2 #.Y 7 Y 8 8 8 Y 5 D E.",
"  ~ : i w D w D 5 7 | 4 }.5.@.@.@.X K 9 #.~.p F.G.F.G.H.I.K w i.",
"  { 5 j j k l m m x = 2 @ M ` %.8.8.9.h 5 p P J.K.i.o [.L.O w M.",
"  ] 5 j k l m m x n ;.2 -.` %.8.8.9.0.f.5 F.F N.N.O.P.u.s.O 0 Q.",
"  ] 7 k l m m x n E >.} =.%.8.8.9.0.f.l.6 G.R.q.q.C.S.J.s.5.9 Q.",
"  ^ Y l m m x n E M '.} |.8.8.9.0.f.l.l.6 G.q.q.p T.o.s.u.g.b 1.",
"  / Y m m x n E M M '.} *.8.9.0.f.l.l.h 6 G.q.T U.V.s.u.I.g.K 1.",
"  ( 8 m x n E M M ` ,.} *.9.0.f.l.l.h t 6 H.[.W.X.X.Y.Z.`.@.K 3.",
"  _ } n n E M M ` %.= } = 0.f.l.l.h t D.7 I.L.s.s.u.I.`./.b X 3.",
"  : 4 | 3 [ 1 1 _ ( [ 2 Y 8 #.2 < 2 } 2 5 K O O 5.g.g.e.b @.6.  ",
"  < 3 4 [ [ 3 | } } 2 < #.8 8 Y 7 6 6 5 D w w 0 9 b K K X 6.J.  ",
"      o y y N T  . .).!.Q s J m.m.y.C.E.E.i.M.Q.Q.1.1.3.3.      "};
